<svg width="20" height="18" viewBox="0 0 20 18" fill="none" xmlns="http://www.w3.org/2000/svg">
<path d="M18.308 9.88113L11.0494 17.4749C10.9169 17.6149 10.7592 17.7261 10.5853 17.8019C10.4115 17.8778 10.2251 17.9168 10.0367 17.9168C9.8484 17.9168 9.66193 17.8778 9.48812 17.8019C9.31431 17.7261 9.15659 17.6149 9.0241 17.4749L1.57726 9.68426C1.06039 9.14496 0.654089 8.50103 0.383215 7.79185C0.112341 7.08267 -0.0174172 6.32314 0.00187494 5.55971C0.0211671 4.79628 0.189104 4.04498 0.495417 3.35176C0.80173 2.65855 1.23998 2.03798 1.78337 1.52801C3.87136 -0.450118 7.27665 -0.262618 9.36463 1.93113L10.0367 2.62488L10.897 1.73426C11.4129 1.19649 12.0272 0.773178 12.7032 0.489662C13.3792 0.206145 14.1029 0.0682576 14.831 0.0842565C15.5624 0.102923 16.2825 0.278081 16.9467 0.598937C17.611 0.919794 18.2054 1.37955 18.6933 1.94988C20.5752 4.13426 20.405 7.69676 18.308 9.88113Z" fill="#DB127E"/>
</svg>
