<svg width="384" height="170" viewBox="0 0 384 170" fill="none" xmlns="http://www.w3.org/2000/svg">
<path d="M68.9936 106.461H50.9501C51.0799 104.925 50.9934 103.54 50.6905 102.307C50.3876 101.074 49.8684 100.014 49.1328 99.1269C48.3972 98.2182 47.4345 97.5259 46.2445 97.0499C45.0546 96.574 43.6375 96.336 41.9933 96.336C38.8346 96.336 36.0113 97.1256 33.5232 98.705C31.0352 100.263 28.9691 102.502 27.3248 105.423C25.6806 108.322 24.5123 111.783 23.82 115.807C23.2142 119.702 23.1926 122.936 23.7551 125.511C24.3392 128.085 25.4751 130.011 27.1626 131.287C28.8717 132.564 31.0893 133.202 33.8153 133.202C35.6326 133.202 37.2985 132.985 38.813 132.553C40.349 132.12 41.712 131.503 42.902 130.703C44.1135 129.881 45.1412 128.907 45.9849 127.782C46.8503 126.636 47.5102 125.37 47.9645 123.985H66.1378C65.4455 126.798 64.2123 129.675 62.4383 132.618C60.6642 135.538 58.3709 138.232 55.5584 140.698C52.7458 143.143 49.4357 145.123 45.628 146.637C41.8202 148.152 37.5365 148.909 32.7768 148.909C26.546 148.909 21.1697 147.546 16.648 144.82C12.148 142.094 8.88112 138.113 6.84744 132.877C4.83539 127.642 4.43515 121.259 5.6467 113.73C6.85826 106.461 9.24891 100.371 12.8187 95.4598C16.3884 90.5486 20.7262 86.8491 25.832 84.3611C30.9379 81.8731 36.3682 80.6291 42.1231 80.6291C46.4717 80.6291 50.366 81.2024 53.8059 82.349C57.2675 83.4957 60.1774 85.1724 62.5356 87.3791C64.9154 89.5643 66.6679 92.2578 67.7929 95.4598C68.9179 98.6617 69.3181 102.329 68.9936 106.461ZM80.2718 148.779C77.1131 148.779 74.3979 148.26 72.1262 147.221C69.8762 146.161 68.232 144.56 67.1935 142.418C66.1767 140.255 65.9495 137.529 66.512 134.24C66.9663 131.514 67.8209 129.189 69.0757 127.263C70.3305 125.338 71.8883 123.758 73.7489 122.525C75.6095 121.292 77.6972 120.351 80.0122 119.702C82.3487 119.031 84.8151 118.598 87.4113 118.404C90.2238 118.187 92.5063 117.917 94.2587 117.592C96.0111 117.268 97.3201 116.824 98.1855 116.262C99.0509 115.699 99.5701 114.942 99.7432 113.99V113.86C99.9379 112.562 99.5917 111.567 98.7047 110.875C97.8393 110.182 96.6277 109.836 95.07 109.836C93.3825 109.836 91.9222 110.204 90.689 110.94C89.4774 111.675 88.6445 112.822 88.1901 114.379H71.7044C72.3967 111.351 73.8138 108.56 75.9556 106.007C78.1191 103.432 80.9857 101.377 84.5555 99.8408C88.1469 98.2831 92.4306 97.5043 97.4066 97.5043C100.955 97.5043 104.07 97.9261 106.753 98.7699C109.436 99.592 111.653 100.749 113.406 102.242C115.18 103.713 116.424 105.444 117.138 107.435C117.873 109.403 118.046 111.545 117.657 113.86L111.945 148H95.1998L96.3681 140.99H95.9787C94.6806 142.851 93.2203 144.355 91.5976 145.501C89.9967 146.648 88.2442 147.481 86.3404 148C84.4581 148.519 82.4353 148.779 80.2718 148.779ZM88.0603 137.486C89.4017 137.486 90.7214 137.204 92.0195 136.642C93.3176 136.079 94.4318 135.268 95.3621 134.208C96.2924 133.148 96.8874 131.86 97.147 130.346L97.796 126.192C97.3201 126.387 96.79 126.571 96.2059 126.744C95.6434 126.895 95.0484 127.047 94.421 127.198C93.8152 127.35 93.1662 127.49 92.4738 127.62C91.8032 127.75 91.1108 127.88 90.3969 128.009C88.969 128.226 87.7683 128.583 86.7947 129.08C85.8211 129.556 85.0639 130.151 84.523 130.865C83.9822 131.558 83.6468 132.336 83.517 133.202C83.3223 134.565 83.636 135.625 84.4581 136.382C85.3019 137.118 86.5026 137.486 88.0603 137.486ZM154.426 98.1533L152.22 111.134H119.378L121.585 98.1533H154.426ZM129.892 86.2109H147.806L140.212 131.969C140.104 132.661 140.126 133.245 140.277 133.721C140.429 134.175 140.731 134.522 141.186 134.76C141.662 134.976 142.289 135.084 143.068 135.084C143.587 135.084 144.225 135.019 144.983 134.889C145.74 134.738 146.313 134.63 146.703 134.565L147.222 147.156C146.313 147.416 145.091 147.708 143.555 148.033C142.04 148.379 140.277 148.606 138.265 148.714C134.068 148.909 130.65 148.465 128.01 147.383C125.392 146.302 123.575 144.614 122.558 142.321C121.563 140.006 121.39 137.118 122.039 133.656L129.892 86.2109ZM172.665 148.909C167.257 148.909 162.8 147.838 159.295 145.696C155.79 143.532 153.335 140.525 151.928 136.674C150.522 132.802 150.252 128.312 151.117 123.206C151.939 118.101 153.692 113.622 156.374 109.771C159.079 105.899 162.54 102.891 166.759 100.749C171 98.586 175.824 97.5043 181.233 97.5043C186.122 97.5043 190.201 98.3913 193.467 100.165C196.756 101.918 199.103 104.406 200.51 107.629C201.937 110.831 202.305 114.596 201.613 118.923H184.997C185.192 116.327 184.77 114.336 183.732 112.952C182.715 111.567 181.233 110.875 179.286 110.875C177.685 110.875 176.214 111.329 174.872 112.238C173.552 113.125 172.417 114.477 171.465 116.294C170.534 118.09 169.853 120.351 169.42 123.077C168.988 125.803 168.933 128.074 169.258 129.892C169.604 131.687 170.275 133.04 171.27 133.948C172.287 134.835 173.574 135.279 175.132 135.279C176.473 135.279 177.706 134.976 178.831 134.37C179.978 133.743 180.962 132.834 181.785 131.644C182.628 130.433 183.267 128.961 183.699 127.231H200.315C199.493 131.644 197.838 135.473 195.35 138.719C192.862 141.964 189.692 144.474 185.841 146.248C181.99 148.022 177.598 148.909 172.665 148.909ZM222.805 119.961L218.132 148H200.218L211.252 81.5377H228.517L224.233 107.629H224.752C226.375 104.449 228.647 101.972 231.567 100.198C234.488 98.4021 237.798 97.5043 241.498 97.5043C245.003 97.5043 247.923 98.3047 250.26 99.9057C252.596 101.507 254.252 103.713 255.225 106.526C256.199 109.339 256.383 112.562 255.777 116.197L250.455 148H232.541L237.214 119.961C237.604 117.495 237.29 115.559 236.273 114.152C235.278 112.746 233.644 112.043 231.373 112.043C229.902 112.043 228.56 112.367 227.349 113.016C226.159 113.644 225.163 114.553 224.363 115.742C223.584 116.911 223.065 118.317 222.805 119.961ZM259.339 148L270.373 81.5377H308.927L308.018 86.9897H275.533L271.379 112.01H301.82L300.911 117.462H270.471L266.317 142.548H299.451L298.542 148H259.339ZM308.287 148L316.594 98.1533H322.209L320.911 105.812H321.43C322.879 103.238 324.891 101.215 327.466 99.7435C330.04 98.2507 332.961 97.5043 336.228 97.5043C339.646 97.5043 342.329 98.3156 344.276 99.9382C346.223 101.539 347.521 103.746 348.171 106.558H348.592C350.15 103.789 352.346 101.593 355.18 99.9706C358.014 98.3264 361.249 97.5043 364.883 97.5043C369.492 97.5043 372.899 98.9646 375.106 101.885C377.313 104.806 377.951 109.046 377.021 114.607L371.439 148H365.662L371.244 114.607C371.872 110.669 371.363 107.716 369.719 105.747C368.075 103.778 365.608 102.794 362.32 102.794C358.512 102.794 355.364 103.962 352.876 106.299C350.41 108.614 348.884 111.578 348.3 115.191L342.816 148H336.91L342.589 114.087C343.13 110.712 342.643 107.986 341.128 105.909C339.636 103.832 337.18 102.794 333.762 102.794C331.447 102.794 329.272 103.367 327.239 104.514C325.227 105.639 323.518 107.207 322.111 109.22C320.727 111.21 319.818 113.492 319.385 116.067L314.063 148H308.287Z" fill="#2F2F2F"/>
<path d="M186.298 52.3866C188.887 54.3231 192.4 54.7811 195.489 53.4579C198.577 52.1348 200.612 49.3 201.053 46.0645C209.076 42.8298 213.824 41.27 216.315 40.6084C218.275 51.818 212.31 63.1739 201.615 67.7564C190.92 72.3388 178.608 68.8818 171.844 59.7304C174.017 58.3255 178.421 55.9649 186.297 52.3873M186.878 48.6862C177.114 53.0726 168.608 57.3939 167.619 59.0358C174.718 71.022 189.743 76.2279 202.84 70.6163C215.937 65.0046 222.556 50.5929 218.718 37.2101C216.847 36.7934 207.908 39.9461 197.94 44.0139C198.365 46.7426 196.894 49.4716 194.206 50.6233C191.632 51.7257 188.617 50.8514 186.877 48.6859L186.878 48.6862Z" fill="#2F2F2F"/>
<path d="M195.817 43.1634C196.764 45.3748 195.74 47.9353 193.529 48.8826C191.318 49.8299 188.757 48.8054 187.81 46.594C186.863 44.3831 187.887 41.8226 190.098 40.8753C192.309 39.928 194.869 40.9525 195.817 43.1634Z" fill="#2F2F2F"/>
<path d="M180.737 19.0275C166.496 25.1292 159.925 41.5506 166.027 55.7917L166.297 56.4209C166.24 55.9712 167.147 55.2446 168.74 54.2234C163.79 42.1965 168.783 27.94 180.198 22.0341C180.974 21.634 182.011 22.0016 182.354 22.8023C182.673 23.5459 182.371 24.4201 181.652 24.7957C171.537 29.9422 167.001 42.1069 171.453 52.6549C175.023 50.719 180.13 48.2601 185.629 45.7689C185.18 42.9828 186.626 40.1971 189.314 39.0454C192.002 37.8936 195.017 38.7683 196.724 41.015C207.378 36.6531 216.995 33.345 217.796 34.4237L217.526 33.7946C211.424 19.5534 194.978 12.9258 180.737 19.0276L180.737 19.0275Z" fill="#2F2F2F"/>
<line x1="156.853" y1="37.0541" x2="146.899" y2="36.0917" stroke="#2F2F2F" stroke-width="2" stroke-linecap="round"/>
<line x1="176.725" y1="10.7039" x2="173.391" y2="1.27614" stroke="#2F2F2F" stroke-width="2" stroke-linecap="round"/>
<line x1="210.569" y1="17.5767" x2="217" y2="9.91883" stroke="#2F2F2F" stroke-width="2" stroke-linecap="round"/>
</svg>
