<svg width="117" height="116" viewBox="0 0 117 116" fill="none" xmlns="http://www.w3.org/2000/svg">
<path d="M41.9103 67.9028C45.2538 73.6896 51.5555 77.4195 58.4995 77.4195C65.4435 77.4195 71.6171 73.6905 75.0886 67.9028C92.9642 68.2885 103.252 69.1892 108.525 69.9606C103.124 92.8515 82.5477 109.57 58.4992 109.57C34.4508 109.57 13.8745 92.9806 8.47306 70.0892C13.7459 69.1895 24.0343 68.2898 41.9094 67.904M46.0242 61.3449C23.9047 61.7307 4.22872 63.017 1.0137 65.3313C4.74376 93.8807 29.0491 116 58.4988 116C87.9485 116 112.254 94.0088 115.855 65.4599C112.64 63.1456 93.092 61.8591 70.8442 61.4735C69.4296 67.0029 64.4142 70.9902 58.37 70.9902C52.5822 70.9893 47.5667 66.8745 46.0237 61.3442L46.0242 61.3449Z" fill="#2F2F2F"/>
<path d="M67.5001 58.1263C67.5002 63.0986 63.4697 67.1291 58.4983 67.1291C53.527 67.1291 49.4964 63.0986 49.4964 58.1263C49.4964 53.155 53.5268 49.1245 58.4982 49.1245C63.4696 49.1245 67.5001 53.155 67.5001 58.1263Z" fill="#2F2F2F"/>
<path d="M58.4995 0C26.4778 0 0.629057 25.8487 0.629243 57.8703L0.629251 59.285C0.886701 58.3843 3.20104 57.742 7.05931 57.0989C7.44489 30.2213 28.5355 7.2018 55.0273 5.27279C56.8277 5.14451 58.4998 6.68744 58.4998 8.48781C58.4998 10.1599 57.2135 11.5745 55.5422 11.7028C32.1368 13.2467 13.6183 32.665 13.4898 56.3273C21.8485 55.5558 33.5514 55.0409 46.026 54.7843C47.4406 49.1257 52.456 45.0109 58.5003 45.0109C64.5445 45.0109 69.56 49.1266 70.9747 54.7843C94.7659 55.1701 115.728 56.713 116.371 59.414L116.371 57.9993C116.371 25.9777 90.5218 0.000390268 58.5 0.000390268L58.4995 0Z" fill="#2F2F2F"/>
</svg>
